<?xml version="1.0" encoding="UTF-8" standalone="no"?>
<!DOCTYPE svg PUBLIC "-//W3C//DTD SVG 1.1//EN" "http://www.w3.org/Graphics/SVG/1.1/DTD/svg11.dtd">
<svg width="600" height="400" viewBox="0 0 600 400" xmlns="http://www.w3.org/2000/svg" xmlns:xlink="http://www.w3.org/1999/xlink">

<title>Gnuplot</title>
<desc>Produced by GNUPLOT 5.0 patchlevel 3 </desc>

<g id="gnuplot_canvas">

<rect x="0" y="0" width="600" height="400" fill="none"/>
<defs>

	<circle id="gpDot" r="0.5" stroke-width="0.5"/>
	<path id="gpPt0" stroke-width="0.222" stroke="currentColor" d="M-1,0 h2 M0,-1 v2"/>
	<path id="gpPt1" stroke-width="0.222" stroke="currentColor" d="M-1,-1 L1,1 M1,-1 L-1,1"/>
	<path id="gpPt2" stroke-width="0.222" stroke="currentColor" d="M-1,0 L1,0 M0,-1 L0,1 M-1,-1 L1,1 M-1,1 L1,-1"/>
	<rect id="gpPt3" stroke-width="0.222" stroke="currentColor" x="-1" y="-1" width="2" height="2"/>
	<rect id="gpPt4" stroke-width="0.222" stroke="currentColor" fill="currentColor" x="-1" y="-1" width="2" height="2"/>
	<circle id="gpPt5" stroke-width="0.222" stroke="currentColor" cx="0" cy="0" r="1"/>
	<use xlink:href="#gpPt5" id="gpPt6" fill="currentColor" stroke="none"/>
	<path id="gpPt7" stroke-width="0.222" stroke="currentColor" d="M0,-1.33 L-1.33,0.67 L1.33,0.67 z"/>
	<use xlink:href="#gpPt7" id="gpPt8" fill="currentColor" stroke="none"/>
	<use xlink:href="#gpPt7" id="gpPt9" stroke="currentColor" transform="rotate(180)"/>
	<use xlink:href="#gpPt9" id="gpPt10" fill="currentColor" stroke="none"/>
	<use xlink:href="#gpPt3" id="gpPt11" stroke="currentColor" transform="rotate(45)"/>
	<use xlink:href="#gpPt11" id="gpPt12" fill="currentColor" stroke="none"/>
	<path id="gpPt13" stroke-width="0.222" stroke="currentColor" d="M0,1.330 L1.265,0.411 L0.782,-1.067 L-0.782,-1.076 L-1.265,0.411 z"/>
	<use xlink:href="#gpPt13" id="gpPt14" fill="currentColor" stroke="none"/>
	<filter id="textbox" filterUnits="objectBoundingBox" x="0" y="0" height="1" width="1">
	  <feFlood flood-color="white" flood-opacity="1" result="bgnd"/>
	  <feComposite in="SourceGraphic" in2="bgnd" operator="atop"/>
	</filter>
	<filter id="greybox" filterUnits="objectBoundingBox" x="0" y="0" height="1" width="1">
	  <feFlood flood-color="lightgrey" flood-opacity="1" result="grey"/>
	  <feComposite in="SourceGraphic" in2="grey" operator="atop"/>
	</filter>
</defs>
<g fill="none" color="white" stroke="currentColor" stroke-width="1.00" stroke-linecap="butt" stroke-linejoin="miter">
</g>
<g fill="none" color="black" stroke="currentColor" stroke-width="1.00" stroke-linecap="butt" stroke-linejoin="miter">
</g>
<g fill="none" color="black" stroke="black" stroke-width="0.50" stroke-linecap="butt" stroke-linejoin="miter">
</g>
<g fill="none" color="gray" stroke="currentColor" stroke-width="0.50" stroke-linecap="butt" stroke-linejoin="miter">
	<path stroke="gray" stroke-dasharray="2,4" class="gridline" d="M63.6,342.4 L575.0,342.4  "/></g>
<g fill="none" color="gray" stroke="gray" stroke-width="1.00" stroke-linecap="butt" stroke-linejoin="miter">
</g>
<g fill="none" color="black" stroke="currentColor" stroke-width="1.00" stroke-linecap="butt" stroke-linejoin="miter">
	<path stroke="black" d="M63.6,342.4 L72.6,342.4 M575.0,342.4 L566.0,342.4  "/>	<g transform="translate(55.3,346.9)" stroke="none" fill="black" font-family="Arial" font-size="12.00" text-anchor="end">
		<text><tspan font-family="Arial">0</tspan></text>
	</g>
</g>
<g fill="none" color="black" stroke="currentColor" stroke-width="1.00" stroke-linecap="butt" stroke-linejoin="miter">
</g>
<g fill="none" color="black" stroke="black" stroke-width="0.50" stroke-linecap="butt" stroke-linejoin="miter">
</g>
<g fill="none" color="gray" stroke="currentColor" stroke-width="0.50" stroke-linecap="butt" stroke-linejoin="miter">
	<path stroke="gray" stroke-dasharray="2,4" class="gridline" d="M63.6,262.3 L575.0,262.3  "/></g>
<g fill="none" color="gray" stroke="gray" stroke-width="1.00" stroke-linecap="butt" stroke-linejoin="miter">
</g>
<g fill="none" color="black" stroke="currentColor" stroke-width="1.00" stroke-linecap="butt" stroke-linejoin="miter">
	<path stroke="black" d="M63.6,262.3 L72.6,262.3 M575.0,262.3 L566.0,262.3  "/>	<g transform="translate(55.3,266.8)" stroke="none" fill="black" font-family="Arial" font-size="12.00" text-anchor="end">
		<text><tspan font-family="Arial">50</tspan></text>
	</g>
</g>
<g fill="none" color="black" stroke="currentColor" stroke-width="1.00" stroke-linecap="butt" stroke-linejoin="miter">
</g>
<g fill="none" color="black" stroke="black" stroke-width="0.50" stroke-linecap="butt" stroke-linejoin="miter">
</g>
<g fill="none" color="gray" stroke="currentColor" stroke-width="0.50" stroke-linecap="butt" stroke-linejoin="miter">
	<path stroke="gray" stroke-dasharray="2,4" class="gridline" d="M63.6,182.1 L575.0,182.1  "/></g>
<g fill="none" color="gray" stroke="gray" stroke-width="1.00" stroke-linecap="butt" stroke-linejoin="miter">
</g>
<g fill="none" color="black" stroke="currentColor" stroke-width="1.00" stroke-linecap="butt" stroke-linejoin="miter">
	<path stroke="black" d="M63.6,182.1 L72.6,182.1 M575.0,182.1 L566.0,182.1  "/>	<g transform="translate(55.3,186.6)" stroke="none" fill="black" font-family="Arial" font-size="12.00" text-anchor="end">
		<text><tspan font-family="Arial">100</tspan></text>
	</g>
</g>
<g fill="none" color="black" stroke="currentColor" stroke-width="1.00" stroke-linecap="butt" stroke-linejoin="miter">
</g>
<g fill="none" color="black" stroke="black" stroke-width="0.50" stroke-linecap="butt" stroke-linejoin="miter">
</g>
<g fill="none" color="gray" stroke="currentColor" stroke-width="0.50" stroke-linecap="butt" stroke-linejoin="miter">
	<path stroke="gray" stroke-dasharray="2,4" class="gridline" d="M63.6,102.0 L575.0,102.0  "/></g>
<g fill="none" color="gray" stroke="gray" stroke-width="1.00" stroke-linecap="butt" stroke-linejoin="miter">
</g>
<g fill="none" color="black" stroke="currentColor" stroke-width="1.00" stroke-linecap="butt" stroke-linejoin="miter">
	<path stroke="black" d="M63.6,102.0 L72.6,102.0 M575.0,102.0 L566.0,102.0  "/>	<g transform="translate(55.3,106.5)" stroke="none" fill="black" font-family="Arial" font-size="12.00" text-anchor="end">
		<text><tspan font-family="Arial">150</tspan></text>
	</g>
</g>
<g fill="none" color="black" stroke="currentColor" stroke-width="1.00" stroke-linecap="butt" stroke-linejoin="miter">
</g>
<g fill="none" color="black" stroke="black" stroke-width="0.50" stroke-linecap="butt" stroke-linejoin="miter">
</g>
<g fill="none" color="gray" stroke="currentColor" stroke-width="0.50" stroke-linecap="butt" stroke-linejoin="miter">
	<path stroke="gray" stroke-dasharray="2,4" class="gridline" d="M63.6,21.9 L575.0,21.9  "/></g>
<g fill="none" color="gray" stroke="gray" stroke-width="1.00" stroke-linecap="butt" stroke-linejoin="miter">
</g>
<g fill="none" color="black" stroke="currentColor" stroke-width="1.00" stroke-linecap="butt" stroke-linejoin="miter">
	<path stroke="black" d="M63.6,21.9 L72.6,21.9 M575.0,21.9 L566.0,21.9  "/>	<g transform="translate(55.3,26.4)" stroke="none" fill="black" font-family="Arial" font-size="12.00" text-anchor="end">
		<text><tspan font-family="Arial">200</tspan></text>
	</g>
</g>
<g fill="none" color="black" stroke="currentColor" stroke-width="1.00" stroke-linecap="butt" stroke-linejoin="miter">
</g>
<g fill="none" color="black" stroke="black" stroke-width="0.50" stroke-linecap="butt" stroke-linejoin="miter">
</g>
<g fill="none" color="gray" stroke="currentColor" stroke-width="0.50" stroke-linecap="butt" stroke-linejoin="miter">
	<path stroke="gray" stroke-dasharray="2,4" class="gridline" d="M63.6,342.4 L63.6,16.7  "/></g>
<g fill="none" color="gray" stroke="gray" stroke-width="1.00" stroke-linecap="butt" stroke-linejoin="miter">
</g>
<g fill="none" color="black" stroke="currentColor" stroke-width="1.00" stroke-linecap="butt" stroke-linejoin="miter">
	<path stroke="black" d="M63.6,342.4 L63.6,333.4 M63.6,16.7 L63.6,25.7  "/>	<g transform="translate(63.6,364.9)" stroke="none" fill="black" font-family="Arial" font-size="12.00" text-anchor="middle">
		<text><tspan font-family="Arial">2009</tspan></text>
	</g>
</g>
<g fill="none" color="black" stroke="currentColor" stroke-width="1.00" stroke-linecap="butt" stroke-linejoin="miter">
</g>
<g fill="none" color="black" stroke="black" stroke-width="0.50" stroke-linecap="butt" stroke-linejoin="miter">
</g>
<g fill="none" color="gray" stroke="currentColor" stroke-width="0.50" stroke-linecap="butt" stroke-linejoin="miter">
	<path stroke="gray" stroke-dasharray="2,4" class="gridline" d="M136.7,342.4 L136.7,79.7 M136.7,25.7 L136.7,16.7  "/></g>
<g fill="none" color="gray" stroke="gray" stroke-width="1.00" stroke-linecap="butt" stroke-linejoin="miter">
</g>
<g fill="none" color="black" stroke="currentColor" stroke-width="1.00" stroke-linecap="butt" stroke-linejoin="miter">
	<path stroke="black" d="M136.7,342.4 L136.7,333.4 M136.7,16.7 L136.7,25.7  "/>	<g transform="translate(136.7,364.9)" stroke="none" fill="black" font-family="Arial" font-size="12.00" text-anchor="middle">
		<text><tspan font-family="Arial">2010</tspan></text>
	</g>
</g>
<g fill="none" color="black" stroke="currentColor" stroke-width="1.00" stroke-linecap="butt" stroke-linejoin="miter">
</g>
<g fill="none" color="black" stroke="black" stroke-width="0.50" stroke-linecap="butt" stroke-linejoin="miter">
</g>
<g fill="none" color="gray" stroke="currentColor" stroke-width="0.50" stroke-linecap="butt" stroke-linejoin="miter">
	<path stroke="gray" stroke-dasharray="2,4" class="gridline" d="M209.7,342.4 L209.7,79.7 M209.7,25.7 L209.7,16.7  "/></g>
<g fill="none" color="gray" stroke="gray" stroke-width="1.00" stroke-linecap="butt" stroke-linejoin="miter">
</g>
<g fill="none" color="black" stroke="currentColor" stroke-width="1.00" stroke-linecap="butt" stroke-linejoin="miter">
	<path stroke="black" d="M209.7,342.4 L209.7,333.4 M209.7,16.7 L209.7,25.7  "/>	<g transform="translate(209.7,364.9)" stroke="none" fill="black" font-family="Arial" font-size="12.00" text-anchor="middle">
		<text><tspan font-family="Arial">2011</tspan></text>
	</g>
</g>
<g fill="none" color="black" stroke="currentColor" stroke-width="1.00" stroke-linecap="butt" stroke-linejoin="miter">
</g>
<g fill="none" color="black" stroke="black" stroke-width="0.50" stroke-linecap="butt" stroke-linejoin="miter">
</g>
<g fill="none" color="gray" stroke="currentColor" stroke-width="0.50" stroke-linecap="butt" stroke-linejoin="miter">
	<path stroke="gray" stroke-dasharray="2,4" class="gridline" d="M282.8,342.4 L282.8,16.7  "/></g>
<g fill="none" color="gray" stroke="gray" stroke-width="1.00" stroke-linecap="butt" stroke-linejoin="miter">
</g>
<g fill="none" color="black" stroke="currentColor" stroke-width="1.00" stroke-linecap="butt" stroke-linejoin="miter">
	<path stroke="black" d="M282.8,342.4 L282.8,333.4 M282.8,16.7 L282.8,25.7  "/>	<g transform="translate(282.8,364.9)" stroke="none" fill="black" font-family="Arial" font-size="12.00" text-anchor="middle">
		<text><tspan font-family="Arial">2012</tspan></text>
	</g>
</g>
<g fill="none" color="black" stroke="currentColor" stroke-width="1.00" stroke-linecap="butt" stroke-linejoin="miter">
</g>
<g fill="none" color="black" stroke="black" stroke-width="0.50" stroke-linecap="butt" stroke-linejoin="miter">
</g>
<g fill="none" color="gray" stroke="currentColor" stroke-width="0.50" stroke-linecap="butt" stroke-linejoin="miter">
	<path stroke="gray" stroke-dasharray="2,4" class="gridline" d="M355.8,342.4 L355.8,16.7  "/></g>
<g fill="none" color="gray" stroke="gray" stroke-width="1.00" stroke-linecap="butt" stroke-linejoin="miter">
</g>
<g fill="none" color="black" stroke="currentColor" stroke-width="1.00" stroke-linecap="butt" stroke-linejoin="miter">
	<path stroke="black" d="M355.8,342.4 L355.8,333.4 M355.8,16.7 L355.8,25.7  "/>	<g transform="translate(355.8,364.9)" stroke="none" fill="black" font-family="Arial" font-size="12.00" text-anchor="middle">
		<text><tspan font-family="Arial">2013</tspan></text>
	</g>
</g>
<g fill="none" color="black" stroke="currentColor" stroke-width="1.00" stroke-linecap="butt" stroke-linejoin="miter">
</g>
<g fill="none" color="black" stroke="black" stroke-width="0.50" stroke-linecap="butt" stroke-linejoin="miter">
</g>
<g fill="none" color="gray" stroke="currentColor" stroke-width="0.50" stroke-linecap="butt" stroke-linejoin="miter">
	<path stroke="gray" stroke-dasharray="2,4" class="gridline" d="M428.9,342.4 L428.9,16.7  "/></g>
<g fill="none" color="gray" stroke="gray" stroke-width="1.00" stroke-linecap="butt" stroke-linejoin="miter">
</g>
<g fill="none" color="black" stroke="currentColor" stroke-width="1.00" stroke-linecap="butt" stroke-linejoin="miter">
	<path stroke="black" d="M428.9,342.4 L428.9,333.4 M428.9,16.7 L428.9,25.7  "/>	<g transform="translate(428.9,364.9)" stroke="none" fill="black" font-family="Arial" font-size="12.00" text-anchor="middle">
		<text><tspan font-family="Arial">2014</tspan></text>
	</g>
</g>
<g fill="none" color="black" stroke="currentColor" stroke-width="1.00" stroke-linecap="butt" stroke-linejoin="miter">
</g>
<g fill="none" color="black" stroke="black" stroke-width="0.50" stroke-linecap="butt" stroke-linejoin="miter">
</g>
<g fill="none" color="gray" stroke="currentColor" stroke-width="0.50" stroke-linecap="butt" stroke-linejoin="miter">
	<path stroke="gray" stroke-dasharray="2,4" class="gridline" d="M501.9,342.4 L501.9,16.7  "/></g>
<g fill="none" color="gray" stroke="gray" stroke-width="1.00" stroke-linecap="butt" stroke-linejoin="miter">
</g>
<g fill="none" color="black" stroke="currentColor" stroke-width="1.00" stroke-linecap="butt" stroke-linejoin="miter">
	<path stroke="black" d="M501.9,342.4 L501.9,333.4 M501.9,16.7 L501.9,25.7  "/>	<g transform="translate(501.9,364.9)" stroke="none" fill="black" font-family="Arial" font-size="12.00" text-anchor="middle">
		<text><tspan font-family="Arial">2015</tspan></text>
	</g>
</g>
<g fill="none" color="black" stroke="currentColor" stroke-width="1.00" stroke-linecap="butt" stroke-linejoin="miter">
</g>
<g fill="none" color="black" stroke="black" stroke-width="0.50" stroke-linecap="butt" stroke-linejoin="miter">
</g>
<g fill="none" color="gray" stroke="currentColor" stroke-width="0.50" stroke-linecap="butt" stroke-linejoin="miter">
	<path stroke="gray" stroke-dasharray="2,4" class="gridline" d="M575.0,342.4 L575.0,16.7  "/></g>
<g fill="none" color="gray" stroke="gray" stroke-width="1.00" stroke-linecap="butt" stroke-linejoin="miter">
</g>
<g fill="none" color="black" stroke="currentColor" stroke-width="1.00" stroke-linecap="butt" stroke-linejoin="miter">
	<path stroke="black" d="M575.0,342.4 L575.0,333.4 M575.0,16.7 L575.0,25.7  "/>	<g transform="translate(575.0,364.9)" stroke="none" fill="black" font-family="Arial" font-size="12.00" text-anchor="middle">
		<text><tspan font-family="Arial">2016</tspan></text>
	</g>
</g>
<g fill="none" color="black" stroke="currentColor" stroke-width="1.00" stroke-linecap="butt" stroke-linejoin="miter">
</g>
<g fill="none" color="black" stroke="currentColor" stroke-width="1.00" stroke-linecap="butt" stroke-linejoin="miter">
	<path stroke="black" d="M63.6,16.7 L63.6,342.4 L575.0,342.4 L575.0,16.7 L63.6,16.7 Z  "/></g>
<g fill="none" color="black" stroke="currentColor" stroke-width="1.00" stroke-linecap="butt" stroke-linejoin="miter">
	<g transform="translate(17.6,179.6) rotate(270)" stroke="none" fill="black" font-family="Arial" font-size="12.00" text-anchor="middle">
		<text><tspan font-family="Arial">Monthly active users (millions)</tspan></text>
	</g>
</g>
<g fill="none" color="black" stroke="currentColor" stroke-width="1.00" stroke-linecap="butt" stroke-linejoin="miter">
	<g transform="translate(319.3,391.9)" stroke="none" fill="black" font-family="Arial" font-size="12.00" text-anchor="middle">
		<text><tspan font-family="Arial">Year</tspan></text>
	</g>
</g>
<g fill="none" color="black" stroke="currentColor" stroke-width="1.00" stroke-linecap="butt" stroke-linejoin="miter">
</g>
	<g id="gnuplot_plot_1"><title>Measurements</title>
<g fill="none" color="black" stroke="currentColor" stroke-width="1.00" stroke-linecap="butt" stroke-linejoin="miter">
	<g transform="translate(171.5,39.2)" stroke="none" fill="black" font-family="Arial" font-size="12.00" text-anchor="end">
		<text><tspan font-family="Arial">Measurements</tspan></text>
	</g>
</g>
<g fill="none" color="black" stroke="currentColor" stroke-width="1.00" stroke-linecap="butt" stroke-linejoin="miter">
	<use xlink:href="#gpPt6" transform="translate(88.0,310.2) scale(1.80)" color="rgb(255,   0,   0)"/>
	<use xlink:href="#gpPt6" transform="translate(94.0,309.5) scale(1.80)" color="rgb(255,   0,   0)"/>
	<use xlink:href="#gpPt6" transform="translate(100.1,309.4) scale(1.80)" color="rgb(255,   0,   0)"/>
	<use xlink:href="#gpPt6" transform="translate(106.2,309.3) scale(1.80)" color="rgb(255,   0,   0)"/>
	<use xlink:href="#gpPt6" transform="translate(112.3,307.5) scale(1.80)" color="rgb(255,   0,   0)"/>
	<use xlink:href="#gpPt6" transform="translate(118.4,305.1) scale(1.80)" color="rgb(255,   0,   0)"/>
	<use xlink:href="#gpPt6" transform="translate(124.5,303.9) scale(1.80)" color="rgb(255,   0,   0)"/>
	<use xlink:href="#gpPt6" transform="translate(130.6,302.4) scale(1.80)" color="rgb(255,   0,   0)"/>
	<use xlink:href="#gpPt6" transform="translate(136.7,306.5) scale(1.80)" color="rgb(255,   0,   0)"/>
	<use xlink:href="#gpPt6" transform="translate(142.7,308.5) scale(1.80)" color="rgb(255,   0,   0)"/>
	<use xlink:href="#gpPt6" transform="translate(148.8,305.2) scale(1.80)" color="rgb(255,   0,   0)"/>
	<use xlink:href="#gpPt6" transform="translate(154.9,303.6) scale(1.80)" color="rgb(255,   0,   0)"/>
	<use xlink:href="#gpPt6" transform="translate(161.0,298.8) scale(1.80)" color="rgb(255,   0,   0)"/>
	<use xlink:href="#gpPt6" transform="translate(167.1,291.6) scale(1.80)" color="rgb(255,   0,   0)"/>
	<use xlink:href="#gpPt6" transform="translate(173.2,290.2) scale(1.80)" color="rgb(255,   0,   0)"/>
	<use xlink:href="#gpPt6" transform="translate(179.3,296.7) scale(1.80)" color="rgb(255,   0,   0)"/>
	<use xlink:href="#gpPt6" transform="translate(185.4,296.6) scale(1.80)" color="rgb(255,   0,   0)"/>
	<use xlink:href="#gpPt6" transform="translate(191.5,288.0) scale(1.80)" color="rgb(255,   0,   0)"/>
	<use xlink:href="#gpPt6" transform="translate(197.5,290.2) scale(1.80)" color="rgb(255,   0,   0)"/>
	<use xlink:href="#gpPt6" transform="translate(203.6,290.8) scale(1.80)" color="rgb(255,   0,   0)"/>
	<use xlink:href="#gpPt6" transform="translate(209.7,293.4) scale(1.80)" color="rgb(255,   0,   0)"/>
	<use xlink:href="#gpPt6" transform="translate(215.8,293.8) scale(1.80)" color="rgb(255,   0,   0)"/>
	<use xlink:href="#gpPt6" transform="translate(221.9,287.5) scale(1.80)" color="rgb(255,   0,   0)"/>
	<use xlink:href="#gpPt6" transform="translate(228.0,278.1) scale(1.80)" color="rgb(255,   0,   0)"/>
	<use xlink:href="#gpPt6" transform="translate(234.1,268.8) scale(1.80)" color="rgb(255,   0,   0)"/>
	<use xlink:href="#gpPt6" transform="translate(240.2,286.7) scale(1.80)" color="rgb(255,   0,   0)"/>
	<use xlink:href="#gpPt6" transform="translate(246.2,286.1) scale(1.80)" color="rgb(255,   0,   0)"/>
	<use xlink:href="#gpPt6" transform="translate(252.3,287.5) scale(1.80)" color="rgb(255,   0,   0)"/>
	<use xlink:href="#gpPt6" transform="translate(258.4,285.6) scale(1.80)" color="rgb(255,   0,   0)"/>
	<use xlink:href="#gpPt6" transform="translate(264.5,281.4) scale(1.80)" color="rgb(255,   0,   0)"/>
	<use xlink:href="#gpPt6" transform="translate(270.6,276.4) scale(1.80)" color="rgb(255,   0,   0)"/>
	<use xlink:href="#gpPt6" transform="translate(276.7,276.1) scale(1.80)" color="rgb(255,   0,   0)"/>
	<use xlink:href="#gpPt6" transform="translate(282.8,275.2) scale(1.80)" color="rgb(255,   0,   0)"/>
	<use xlink:href="#gpPt6" transform="translate(288.9,279.9) scale(1.80)" color="rgb(255,   0,   0)"/>
	<use xlink:href="#gpPt6" transform="translate(294.9,279.5) scale(1.80)" color="rgb(255,   0,   0)"/>
	<use xlink:href="#gpPt6" transform="translate(301.0,277.3) scale(1.80)" color="rgb(255,   0,   0)"/>
	<use xlink:href="#gpPt6" transform="translate(307.1,275.2) scale(1.80)" color="rgb(255,   0,   0)"/>
	<use xlink:href="#gpPt6" transform="translate(313.2,275.3) scale(1.80)" color="rgb(255,   0,   0)"/>
	<use xlink:href="#gpPt6" transform="translate(319.3,275.8) scale(1.80)" color="rgb(255,   0,   0)"/>
	<use xlink:href="#gpPt6" transform="translate(325.4,280.8) scale(1.80)" color="rgb(255,   0,   0)"/>
	<use xlink:href="#gpPt6" transform="translate(331.5,277.9) scale(1.80)" color="rgb(255,   0,   0)"/>
	<use xlink:href="#gpPt6" transform="translate(337.6,271.7) scale(1.80)" color="rgb(255,   0,   0)"/>
	<use xlink:href="#gpPt6" transform="translate(343.7,267.6) scale(1.80)" color="rgb(255,   0,   0)"/>
	<use xlink:href="#gpPt6" transform="translate(349.7,259.1) scale(1.80)" color="rgb(255,   0,   0)"/>
	<use xlink:href="#gpPt6" transform="translate(355.8,261.7) scale(1.80)" color="rgb(255,   0,   0)"/>
	<use xlink:href="#gpPt6" transform="translate(361.9,256.2) scale(1.80)" color="rgb(255,   0,   0)"/>
	<use xlink:href="#gpPt6" transform="translate(368.0,253.5) scale(1.80)" color="rgb(255,   0,   0)"/>
	<use xlink:href="#gpPt6" transform="translate(374.1,234.5) scale(1.80)" color="rgb(255,   0,   0)"/>
	<use xlink:href="#gpPt6" transform="translate(380.2,226.0) scale(1.80)" color="rgb(255,   0,   0)"/>
	<use xlink:href="#gpPt6" transform="translate(386.3,216.5) scale(1.80)" color="rgb(255,   0,   0)"/>
	<use xlink:href="#gpPt6" transform="translate(392.4,198.6) scale(1.80)" color="rgb(255,   0,   0)"/>
	<use xlink:href="#gpPt6" transform="translate(398.4,189.8) scale(1.80)" color="rgb(255,   0,   0)"/>
	<use xlink:href="#gpPt6" transform="translate(404.5,196.9) scale(1.80)" color="rgb(255,   0,   0)"/>
	<use xlink:href="#gpPt6" transform="translate(410.6,179.5) scale(1.80)" color="rgb(255,   0,   0)"/>
	<use xlink:href="#gpPt6" transform="translate(416.7,168.0) scale(1.80)" color="rgb(255,   0,   0)"/>
	<use xlink:href="#gpPt6" transform="translate(422.8,158.7) scale(1.80)" color="rgb(255,   0,   0)"/>
	<use xlink:href="#gpPt6" transform="translate(428.9,160.2) scale(1.80)" color="rgb(255,   0,   0)"/>
	<use xlink:href="#gpPt6" transform="translate(435.0,147.9) scale(1.80)" color="rgb(255,   0,   0)"/>
	<use xlink:href="#gpPt6" transform="translate(441.1,145.1) scale(1.80)" color="rgb(255,   0,   0)"/>
	<use xlink:href="#gpPt6" transform="translate(447.2,146.7) scale(1.80)" color="rgb(255,   0,   0)"/>
	<use xlink:href="#gpPt6" transform="translate(453.2,125.8) scale(1.80)" color="rgb(255,   0,   0)"/>
	<use xlink:href="#gpPt6" transform="translate(459.3,114.0) scale(1.80)" color="rgb(255,   0,   0)"/>
	<use xlink:href="#gpPt6" transform="translate(465.4,116.0) scale(1.80)" color="rgb(255,   0,   0)"/>
	<use xlink:href="#gpPt6" transform="translate(471.5,114.8) scale(1.80)" color="rgb(255,   0,   0)"/>
	<use xlink:href="#gpPt6" transform="translate(477.6,110.8) scale(1.80)" color="rgb(255,   0,   0)"/>
	<use xlink:href="#gpPt6" transform="translate(483.7,89.8) scale(1.80)" color="rgb(255,   0,   0)"/>
	<use xlink:href="#gpPt6" transform="translate(489.8,79.1) scale(1.80)" color="rgb(255,   0,   0)"/>
	<use xlink:href="#gpPt6" transform="translate(495.9,73.2) scale(1.80)" color="rgb(255,   0,   0)"/>
	<use xlink:href="#gpPt6" transform="translate(501.9,66.3) scale(1.80)" color="rgb(255,   0,   0)"/>
	<use xlink:href="#gpPt6" transform="translate(508.0,51.6) scale(1.80)" color="rgb(255,   0,   0)"/>
	<use xlink:href="#gpPt6" transform="translate(514.1,42.4) scale(1.80)" color="rgb(255,   0,   0)"/>
	<use xlink:href="#gpPt6" transform="translate(520.2,38.7) scale(1.80)" color="rgb(255,   0,   0)"/>
	<use xlink:href="#gpPt6" transform="translate(526.3,34.9) scale(1.80)" color="rgb(255,   0,   0)"/>
	<use xlink:href="#gpPt6" transform="translate(532.4,21.5) scale(1.80)" color="rgb(255,   0,   0)"/>
	<use xlink:href="#gpPt6" transform="translate(538.5,24.6) scale(1.80)" color="rgb(255,   0,   0)"/>
	<use xlink:href="#gpPt6" transform="translate(200.9,34.7) scale(1.80)" color="rgb(255,   0,   0)"/>
</g>
	</g>
	<g id="gnuplot_plot_2"><title>Smoothed</title>
<g fill="none" color="black" stroke="currentColor" stroke-width="1.00" stroke-linecap="butt" stroke-linejoin="miter">
	<g transform="translate(171.5,57.2)" stroke="none" fill="black" font-family="Arial" font-size="12.00" text-anchor="end">
		<text><tspan font-family="Arial">Smoothed</tspan></text>
	</g>
</g>
<g fill="none" color="black" stroke="currentColor" stroke-width="1.00" stroke-linecap="butt" stroke-linejoin="miter">
	<path stroke="rgb(255,   0,   0)" d="M179.8,52.7 L222.0,52.7 M88.0,310.4 L92.5,309.9 L97.1,309.3 L101.6,308.8 L106.2,308.2 L110.7,307.7   L115.3,307.1 L119.8,306.6 L124.4,306.0 L128.9,305.5 L133.5,305.0 L138.0,304.4 L142.6,303.6 L147.1,302.7   L151.7,301.6 L156.2,300.3 L160.8,299.0 L165.3,297.7 L169.9,296.5 L174.4,295.4 L179.0,294.5 L183.5,293.6   L188.1,292.7 L192.6,291.9 L197.2,291.1 L201.7,290.3 L206.3,289.4 L210.8,288.5 L215.4,287.5 L219.9,286.4   L224.5,285.3 L229.0,284.4 L233.6,283.7 L238.1,283.2 L242.7,282.8 L247.2,282.5 L251.8,282.2 L256.3,281.7   L260.9,281.2 L265.4,280.6 L270.0,280.0 L274.5,279.4 L279.1,279.0 L283.6,278.7 L288.2,278.5 L292.7,278.4   L297.3,278.3 L301.8,278.2 L306.4,278.0 L310.9,277.8 L315.5,277.5 L320.0,277.0 L324.6,276.2 L329.1,275.0   L333.7,273.3 L338.2,271.2 L342.8,268.5 L347.3,265.4 L351.9,261.7 L356.4,257.5 L361.0,252.6 L365.5,247.2   L370.1,241.1 L374.6,234.6 L379.2,227.6 L383.7,220.5 L388.3,213.3 L392.8,206.2 L397.4,199.2 L402.0,192.5   L406.5,186.0 L411.1,179.7 L415.6,173.6 L420.2,167.8 L424.7,162.2 L429.3,156.9 L433.8,151.8 L438.4,146.7   L442.9,141.6 L447.5,136.5 L452.0,131.3 L456.6,126.0 L461.1,120.6 L465.7,115.2 L470.2,109.6 L474.8,103.7   L479.3,97.5 L483.9,91.1 L488.4,84.4 L493.0,77.7 L497.5,71.0 L502.1,64.4 L506.6,58.0 L511.2,51.7   L515.7,45.7 L520.3,39.9 L524.8,34.3 L529.4,28.9 L533.9,23.6 L538.5,18.4  "/></g>
	</g>
	<g id="gnuplot_plot_3"><title>60.0M/yr</title>
<g fill="none" color="black" stroke="currentColor" stroke-width="1.00" stroke-linecap="butt" stroke-linejoin="miter">
	<g transform="translate(171.5,75.2)" stroke="none" fill="black" font-family="Arial" font-size="12.00" text-anchor="end">
		<text><tspan font-family="Arial">60.0M/yr</tspan></text>
	</g>
</g>
<g fill="none" color="black" stroke="currentColor" stroke-width="1.00" stroke-linecap="butt" stroke-linejoin="miter">
	<path stroke="rgb(  0, 255,   0)" d="M179.8,70.7 L222.0,70.7 M291.0,342.4 L292.7,340.1 L297.3,334.1 L301.8,328.1 L306.4,322.1 L310.9,316.1   L315.5,310.2 L320.0,304.2 L324.6,298.2 L329.1,292.2 L333.7,286.2 L338.2,280.2 L342.8,274.2 L347.3,268.2   L351.9,262.2 L356.4,256.3 L361.0,250.3 L365.5,244.3 L370.1,238.3 L374.6,232.3 L379.2,226.3 L383.7,220.3   L388.3,214.3 L392.8,208.3 L397.4,202.4 L402.0,196.4 L406.5,190.4 L411.1,184.4 L415.6,178.4 L420.2,172.4   L424.7,166.4 L429.3,160.4 L433.8,154.4 L438.4,148.5 L442.9,142.5 L447.5,136.5 L452.0,130.5 L456.6,124.5   L461.1,118.5 L465.7,112.5 L470.2,106.5 L474.8,100.5 L479.3,94.6 L483.9,88.6 L488.4,82.6 L493.0,76.6   L497.5,70.6 L502.1,64.6 L506.6,58.6 L511.2,52.6 L515.7,46.6 L520.3,40.7 L524.8,34.7 L529.4,28.7   L533.9,22.7 L538.5,16.7  "/></g>
	</g>
<g fill="none" color="white" stroke="rgb(  0, 255,   0)" stroke-width="2.00" stroke-linecap="butt" stroke-linejoin="miter">
</g>
<g fill="none" color="black" stroke="currentColor" stroke-width="2.00" stroke-linecap="butt" stroke-linejoin="miter">
</g>
<g fill="none" color="black" stroke="black" stroke-width="1.00" stroke-linecap="butt" stroke-linejoin="miter">
</g>
<g fill="none" color="black" stroke="currentColor" stroke-width="1.00" stroke-linecap="butt" stroke-linejoin="miter">
	<path stroke="black" d="M63.6,16.7 L63.6,342.4 L575.0,342.4 L575.0,16.7 L63.6,16.7 Z  "/></g>
<g fill="none" color="black" stroke="currentColor" stroke-width="1.00" stroke-linecap="butt" stroke-linejoin="miter">
</g>
</g>
</svg>